<svg id="Capa_1" data-name="Capa 1" xmlns="http://www.w3.org/2000/svg" viewBox="0 0 1999.77 485.87"><defs><style>.cls-1,.cls-2{fill:#211915;}.cls-2{stroke:#211915;stroke-miterlimit:10;}</style></defs><title>logo</title><path class="cls-1" d="M384.89,586.89V545.34h5.18v40.28a11.42,11.42,0,0,0,3.42,8.46,11.62,11.62,0,0,0,19.82-7.65h-0.06V545.34h5.18v41.08a16.73,16.73,0,0,1-28.6,11.28,19.11,19.11,0,0,1-2.3-2.76,17.35,17.35,0,0,1-2.36,2.76,16.75,16.75,0,0,1-28.6-11.28V545.34h5.18v41.08H361.7a11.73,11.73,0,0,0,11.62,11A11.57,11.57,0,0,0,384.89,586.89Z" transform="translate(-24.6 -137.56)"/><path class="cls-1" d="M451.55,591.26a24.9,24.9,0,0,0,17.38,6.67,25.17,25.17,0,0,0,18.47-7.65q1-1,1.84-2l5.47,2a32.87,32.87,0,0,1-3.39,4A31.58,31.58,0,1,1,488.55,547q1.38,1.15,2.76,2.53,0.52,0.52,1,1l-3.91,3.91Zm33-40.34A26.11,26.11,0,0,0,448,587.47Z" transform="translate(-24.6 -137.56)"/><path class="cls-1" d="M514.77,509.78h5.18v43.5a33.16,33.16,0,0,1,3.28-3.8,31.62,31.62,0,1,1,0,44.71,33,33,0,0,1-3.28-3.8v11.45h-5.18V509.78Zm5.18,56.68v10.82A26,26,0,1,0,519.94,566.46Z" transform="translate(-24.6 -137.56)"/><path class="cls-1" d="M707.19,601.85H702V590.34a38.76,38.76,0,0,1-3.28,3.86,31.62,31.62,0,1,1,0-44.71,39,39,0,0,1,3.28,3.85V509.78h5.18v92.07ZM702,577V566.75A25.86,25.86,0,1,0,702,577Z" transform="translate(-24.6 -137.56)"/><path class="cls-1" d="M741.46,591.26a24.9,24.9,0,0,0,17.38,6.67,25.17,25.17,0,0,0,18.47-7.65q1-1,1.84-2l5.47,2a32.87,32.87,0,0,1-3.39,4A31.58,31.58,0,1,1,778.46,547q1.38,1.15,2.76,2.53,0.52,0.52,1,1l-3.91,3.91Zm33-40.34a26.11,26.11,0,0,0-36.54,36.54Z" transform="translate(-24.6 -137.56)"/><path class="cls-1" d="M825.5,592.41l21.75-47.07h6L825.5,603.41l-27.74-58.06h6Z" transform="translate(-24.6 -137.56)"/><path class="cls-1" d="M880.6,591.26A24.9,24.9,0,0,0,898,597.94a25.17,25.17,0,0,0,18.47-7.65q1-1,1.84-2l5.47,2a32.87,32.87,0,0,1-3.39,4A31.58,31.58,0,1,1,917.6,547q1.38,1.15,2.76,2.53,0.52,0.52,1,1l-3.91,3.91Zm33-40.34a26.11,26.11,0,0,0-36.54,36.54Z" transform="translate(-24.6 -137.56)"/><path class="cls-1" d="M949,509.78v92.07h-5.18V509.78H949Z" transform="translate(-24.6 -137.56)"/><path class="cls-1" d="M1000.64,540.22a31.63,31.63,0,1,1-22.33,9.27A30.41,30.41,0,0,1,1000.64,540.22ZM982.16,553.4a26.11,26.11,0,1,0,18.47-7.65A25.17,25.17,0,0,0,982.16,553.4Z" transform="translate(-24.6 -137.56)"/><path class="cls-1" d="M1052.28,545.34h5.18v7.94a33.18,33.18,0,0,1,3.28-3.8,31.62,31.62,0,1,1,0,44.71,33,33,0,0,1-3.28-3.8v33h-5.18V545.34Zm5.18,21.12v10.82A26,26,0,1,0,1057.46,566.46Z" transform="translate(-24.6 -137.56)"/><path class="cls-1" d="M1146,591.26a24.9,24.9,0,0,0,17.38,6.67,25.17,25.17,0,0,0,18.47-7.65q1-1,1.84-2l5.47,2a32.88,32.88,0,0,1-3.4,4A31.58,31.58,0,1,1,1183,547q1.38,1.15,2.76,2.53,0.52,0.52,1,1l-3.91,3.91Zm33-40.34a26.11,26.11,0,0,0-36.54,36.54Z" transform="translate(-24.6 -137.56)"/><path class="cls-1" d="M1209.26,545.34h5.18v10.3a33.37,33.37,0,0,1,3.74-4.43q6.85-6.85,14-7.19v5.64q-4.89.23-10.13,5.47a24.89,24.89,0,0,0-7.65,17.55v29.17h-5.18V545.34Z" transform="translate(-24.6 -137.56)"/><path class="cls-1" d="M1341,582.8a9.42,9.42,0,0,1-1.44-.69,33.23,33.23,0,0,1-6.9-5.87,25.82,25.82,0,0,0-3.91-3.17,5.25,5.25,0,0,0-2.53-.69,5.78,5.78,0,0,0-1.44.17,5.38,5.38,0,0,0-3.86,4.95,4.89,4.89,0,0,0,.23,1.44,4.66,4.66,0,0,0,2.25,3,6.48,6.48,0,0,0,3,.58,18,18,0,0,0,2.36-.17l-0.52,4.72a10.63,10.63,0,0,1-2.88.4,9.45,9.45,0,0,1-9-7.19,10.2,10.2,0,0,1-.4-2.76,10.32,10.32,0,0,1,7.54-9.72,10.44,10.44,0,0,1,2.82-.4,9.55,9.55,0,0,1,4.89,1.38,28.37,28.37,0,0,1,6,5.12,31.54,31.54,0,0,0,4.89,3.91,7.15,7.15,0,0,0,3.57,1,7.71,7.71,0,0,0,2.07-.29,7.21,7.21,0,0,0,4.54-3.51,7.18,7.18,0,0,0,.69-5.64,7.2,7.2,0,0,0-7.08-5.41,11.83,11.83,0,0,0-3.11.46l-0.06-5.12a11.68,11.68,0,0,1,3.22-.46,12.61,12.61,0,0,1,11.85,9.21,12.94,12.94,0,0,1,.46,3.34,11.87,11.87,0,0,1-1.67,6,12,12,0,0,1-7.6,5.87,12.88,12.88,0,0,1-2.88.46,26.7,26.7,0,0,1-6.85,11.17,27.25,27.25,0,0,1-46.55-19.28,27.84,27.84,0,0,1,7.88-19.68,33,33,0,0,1,14-8.69,26.42,26.42,0,0,1-8.49-6.42q-4.34-4.63-4.34-12.75a19.5,19.5,0,0,1,19.51-19.39,18.93,18.93,0,0,1,13.81,5.7,16.34,16.34,0,0,1,4.37,6.85l-4.66,1.84a14.3,14.3,0,0,0-3.4-5.18,14.34,14.34,0,0,0-24.45,10.19,14.44,14.44,0,0,0,4.06,10.24q4.05,4.32,7.51,5.64a25.1,25.1,0,0,0,8.63,1.38v4.83l-4.14.12q-12.6,2.36-18.93,9.26a23,23,0,0,0-6.33,16.06,22.17,22.17,0,0,0,37.86,15.71A22,22,0,0,0,1341,582.8Z" transform="translate(-24.6 -137.56)"/><path class="cls-1" d="M1486.22,601.85H1481V590.34a39.09,39.09,0,0,1-3.28,3.86,31.62,31.62,0,1,1,0-44.71,39.36,39.36,0,0,1,3.28,3.85v-8h5.18v56.51ZM1481,577V566.75A25.86,25.86,0,1,0,1481,577Z" transform="translate(-24.6 -137.56)"/><path class="cls-1" d="M1509.73,545.34h5.18v10.3a33.35,33.35,0,0,1,3.74-4.43q6.85-6.85,14-7.19v5.64q-4.89.23-10.13,5.47a24.88,24.88,0,0,0-7.65,17.55v29.17h-5.18V545.34Z" transform="translate(-24.6 -137.56)"/><path class="cls-1" d="M1560.8,545.34V521.29H1566v24.05h11.51v5.18H1566v51.33h-5.18V550.52h-11.51v-5.18h11.51Z" transform="translate(-24.6 -137.56)"/><path class="cls-1" d="M1604.94,526.82a4.89,4.89,0,0,1,1.52,3.63,5,5,0,0,1-1.52,3.68,5.21,5.21,0,0,1-7.31,0,5,5,0,0,1-1.53-3.68,4.89,4.89,0,0,1,1.53-3.63A5.21,5.21,0,0,1,1604.94,526.82Zm-1.06,18.53v56.51h-5.18V545.34h5.18Z" transform="translate(-24.6 -137.56)"/><path class="cls-1" d="M1644.07,572.79q-6.62-3.57-9.15-6.1a13,13,0,0,1-4-9.55,13.19,13.19,0,0,1,4-9.64,13,13,0,0,1,9.55-4,12.63,12.63,0,0,1,9.32,3.68,11.44,11.44,0,0,1,3.57,8.23v0.29l-4.49,1.78a11.16,11.16,0,0,0-2.73-6.56,7.61,7.61,0,0,0-5.67-2.19,8.38,8.38,0,0,0-5.93,14.33,40.35,40.35,0,0,0,6.1,4.37q7.37,4,10.47,7.14a16.77,16.77,0,1,1-23.71,23.74q-4.89-4.92-4.89-10.79l5.12-1.32a11.43,11.43,0,0,0,3.42,8.46,11.63,11.63,0,0,0,16.43-16.46A50,50,0,0,0,1644.07,572.79Z" transform="translate(-24.6 -137.56)"/><path class="cls-1" d="M1689.84,545.34V521.29H1695v24.05h11.51v5.18H1695v51.33h-5.18V550.52h-11.51v-5.18h11.51Z" transform="translate(-24.6 -137.56)"/><path class="cls-2" d="M105.14,307c10-9.17,41.9-11.26,54.74,2.36,1.31-10.48,7.33-63.9,7.6-78.83-26.71,6.29-72-33.78-111.57-9.17-17,12.1-32.89,22.36-30.58,15.91,0.82-2.28,26-22.8,27.94-24.21,39.41-28.08,88,11.61,115,7,10.21-85.12,55.08-82.78,71.73-77.45,61.33,34.37-33.5,84.26-40.31,87.14-1,34-5.24,60-7.33,88.52,14.4,3.41,38.76-6,51.86-20.17,1.83-2.1,8.64-3.67,6.81,6.28-12.31,22.52-48.45,29.59-60.24,25.67-8.64,62.07-18.07,73.59-27,84.59-46.09,46.62-62.07-24.1-47.4-36.67,6.55-4.19,6,1.31,4.19,6.81-4.19,48.45,24.36,26.45,28.81-1.83,2.88-23.57,5.76-39.28,8.64-62.85-14.67-13.36-38.24-12.57-46.09-7.33C100.69,317.19,105.14,307,105.14,307Zm94-88.78c78.16-25.61,36.2-85.17,7.6-41.12C202.11,184.23,197.59,208.24,199.16,218.19Z" transform="translate(-24.6 -137.56)"/><path class="cls-2" d="M374.36,299.38s1.83-3.14,6-.26c3.14,1.83,1.83,6.81,1.83,6.81-15.45,100.83-36.4,110.78-47.14,116.54-18.59,9.69-36.4,1.31-41.9-8.38-17.29-30.38-3.41-78,.79-92.71-20.69,6.81-39.28-.52-47.4-10.21-8.12-15.19-14.4-25.66-9.43-44,6-17,20.69-22,29.86-14.4,14.4,12-.52,30.64-7.33,45.57,5.76,16,33.78,11.52,42.17,5.24,11-6.81,24.62-2.1,23.57,12-0.26,21.21-2.88,25.67-5.5,44.78-6.81,50.54,7.07,51.85,7.07,51.85C356,417,374.36,299.38,374.36,299.38Zm-122.31-9.17c7.07-16.5,11.52-20.43,9.43-28,0,0-3.93-8.64-11.52.26C245.24,272.14,247.08,283.4,252.05,290.21Z" transform="translate(-24.6 -137.56)"/><path class="cls-2" d="M436.15,308.54c-2.36-43-13.36-34.83-13.36-34.83-28.28,28-30.64,96.9-23,97.42,8.9-.52,21-16.24,23-27.76,4.19-22,11.26-24.88,16-20.17,7.33,5.5,12,12.83,9.43,20.69-6,46.88,3.4,43.74,6.55,41.9,14.93-8.9,35.62-41.12,46.62-88,0,0,3.4-4.19,5.76-.79,3.93,2.1,2.36,7.33,2.36,7.33-21,83-49.5,86.43-56.57,93.5-26.71,11.78-28.55-25.67-31.16-31.43-16.24,19.38-33,18.33-37.71,15.71-34.83-5.5-13.36-105.8,15.19-118.64,34.83-15.71,45.31,33,43.47,41.9Z" transform="translate(-24.6 -137.56)"/><path class="cls-2" d="M663.47,304.88C636.75,446.3,598,432.68,591.18,421.68c-19.64-19.9-21.48-75.69-19.38-94,0-14.67,16.5-72,2.09-62.07-21.74,19.12-39.55,73.59-42.16,78.31,4.71,17.28-.26,20.43-4.19,21.21-20.17,3.14-21.74-9.17-23.83-16.24-5.76-25.14-2.36-56.31,3.4-80.66,0-4.71,8.12-7.07,10.74-5,10,5.76,19.12,10.48,17,22-2.09,10-3.93,31.69-3.93,36.4,12.57-36.67,28-53.69,36.4-62.07,12-12,37.71,3.67,40.59,20.69,2.1,20.17-1.57,40.59-3.67,55.26-8.38,49-.26,68.35,1.83,70.45,5.24,5.76,22.26,15.72,50.55-107.64,0,0,5,.79,5.24,1.31A13.81,13.81,0,0,1,663.47,304.88Z" transform="translate(-24.6 -137.56)"/><path class="cls-2" d="M798.85,302c31.17,38,9.69,95.59,47.4,97.42,27.24,1.31,51.86-67.31,54.21-100,1.31-5.24,7.59-4.45,7.59,5.24-12.83,83.28-34,101.09-56.83,106.07-64.16,8.64-54.74-84.59-80.4-110.26,0,0-9.43,115.23-12.57,123.88-7.59,21.21-19.12,25.4-22.52-7.86-4.19-9.69,2.88-102.14,2.09-102.92,3.14-34.31,1.31-60.24,9.69-95.07,2.1-11.26,17.55-14.67,19.38-12.57,12.57,19.9,6.55,80.66,4.19,86.43,33.26-1.31,50.55-18.07,54-48.71-3.14-43-44.26-61-78.83-52.9C722.9,198,720,202.21,701.69,215.31c-5,3.4-12-.79-5.24-8.38,7.07-8.38,26.71-23.31,51.85-27.76,109.21-19.12,107.38,56,105.54,71.5C851.23,274.24,826.61,301.47,798.85,302Z" transform="translate(-24.6 -137.56)"/><path class="cls-2" d="M934.24,360.4c21.74,0,32-37.71,30.64-55,1-31.43,6.55-27,11.52-25.14,6,2.1,19.12,13.36,19.64,20.43-1,19.9-7.86,63.9,3.67,89.57,10,16.76,36.4-14.4,49-90.88,0,0,5-.79,6,0.52,1.57,1.83,1.83,5.5,1.83,5.5-19.64,109.47-57.62,100.31-62.07,99.52-28.55-5.76-28-59.45-28.28-61.55-16.76,36.4-46.88,36.14-57.09,24.62-18.86-23.57-7.33-91.93-3.93-107.64,4.71-13.1,16.76-14.4,27.5-5.24,2.88,4.45,5.5,8.38,5.76,13.1C928,343.37,932.14,359.35,934.24,360.4Z" transform="translate(-24.6 -137.56)"/><path class="cls-2" d="M1133.79,296.23s4.19-.26,4.71.52c1.31,1.83,1.57,6.81,1.57,6.81-10.74,85.9-40.33,118.9-76.73,109.47-29.6-8.9-14.14-120.21-12.57-126.23,1.83-7.33,10.74-12,16.24-8.64,12.31,7.86,14.93,17.29,13.36,23.31-4.45,25.93-6,51.33-7.33,78.83C1071.46,413.3,1115.46,421.68,1133.79,296.23ZM1088,243.33c-1.31,5-1,12.31-3.41,14.93-1.83,2.36-20.69-1.83-21-4.45-9.17-17,1.57-23.57,1.57-23.57C1071.2,231.28,1086.91,235.47,1088,243.33Z" transform="translate(-24.6 -137.56)"/><path class="cls-2" d="M1208.16,364.33c50.81,70.45,4.19,119.95-2.88,127-42.43,37.19-74.38,1-73.33-22.78,2.36-32,27-68.62,57.09-103.45-10.21-8.9-21.21-4.45-23.31-2.36-4.72,2.62-8.12,3.67-10.74-1-2.09-4.71-8.64-8.64-2.88-14.4,10-12.57,37.19-47.93,34.31-53.95-7.6-5.5-29.33,7.33-41.64,12.57-7.86,5-12.31,2.36-12-11.79,3.93-6.55,41.38-13.62,57.09-13.62,12,0,29.07,10.21,24.36,24.88-9.43,28.55-32.47,39.81-34.57,41.9,5.76-1.31,12.57,2.1,19.12,6.55,14.67-9.69,40.85-20.69,62.07-55,0,0,3.41-5.24,6.55-1.57,3.41,2.62-.52,8.12-0.52,8.12C1241.95,345.73,1216.8,356.73,1208.16,364.33Zm-13.88,9.17c-74.38,91.66-51.59,111.83-42.16,117.33C1200,508.11,1209.47,398.11,1194.28,373.49Z" transform="translate(-24.6 -137.56)"/><path class="cls-2" d="M1277.81,313.52c14.67-8.38,62.59-5,79.62-5,28,0,7.59,15.71,0,16.24-17,0-33-1-50,0C1273.1,326.88,1279.65,320.33,1277.81,313.52Z" transform="translate(-24.6 -137.56)"/><path class="cls-2" d="M1453,252.5c-15.72,101.62-17,171.8-18.07,186.73,0,10.21-17.81,16.5-32-24.88-4.45-13.35,19.9-165,19.9-178.09-23.57-18.86-87.47-25.4-107.64.79-1.31,2.1-9.69-1.83-4.71-6.81,36.93-34,91.92-15.71,114.45-2.88,4.45-11.52,9.69-55.26,44.26-47.93C1520.31,189.9,1492.81,259.31,1453,252.5Zm1-11.52c32,5.5,39.28-40.07,23-46.09C1458.5,186.5,1455.36,227.88,1454.05,241Z" transform="translate(-24.6 -137.56)"/><path class="cls-2" d="M1545.71,308.54c-2.36-43-13.36-34.83-13.36-34.83-28.28,28-30.64,96.9-23,97.42,8.9-.52,21-16.24,23-27.76,4.19-22,11.26-24.88,16-20.17,7.33,5.5,12,12.83,9.43,20.69-6,46.88,3.41,43.74,6.55,41.9,14.93-8.9,35.62-41.12,46.62-88,0,0,3.4-4.19,5.76-.79,3.93,2.1,2.36,7.33,2.36,7.33-21,83-49.5,86.43-56.57,93.5-26.71,11.78-28.55-25.67-31.17-31.43-16.24,19.38-33,18.33-37.71,15.71-34.83-5.5-13.36-105.8,15.19-118.64,34.83-15.71,45.31,33,43.48,41.9Z" transform="translate(-24.6 -137.56)"/><path class="cls-2" d="M1663.81,346c5.24-26.71,3.14-29.07,5.24-35.09s5.5-6.28,10.74-2.09c8.64,7.07,16.5,13.1,13.09,26.19-0.52,7.6-2.09,18.59-1.57,23.31,2.09-.26,38-13.62,51.07-60,0,0,3.4-.79,5.24.52,2.36,1.83,1,6.29,1,6.29-15.71,56.57-53.43,59.45-58.66,65.73-4.45,20.43-2.88,37.19-12.31,94.54s-55,38.5-59.71,34.83c-31.69-28.55-1-97.42,41.64-124.66,1.31-4.71,2.09-13.88,2.09-19.38-37.45,5.76-50.54-6.29-55.78-22.26-14.14-50.28,11.52-79.35,27.76-90.88,34.83-23.57,76.73,3.67,61.54,39,0.26,2.62-4.19,3.93-7.6-.26,3.93-32.21-8.38-35.35-19.9-36.66C1636.57,245.69,1612,352.28,1663.81,346ZM1658,390.51s-49.5,46.36-40.59,91.14c4.72,12.31,19.12,15.19,22.52,11C1658.31,473,1656.74,398.63,1658,390.51Z" transform="translate(-24.6 -137.56)"/><path class="cls-2" d="M1789.51,420.63c11.78-.26,39.28-29.33,55-122.83,0,0,5,.26,5.5,1.31,1.31,1.83,1.57,6,1.57,6-22,140.64-72.81,132.52-80.14,125.45-8.64-8.64-16-15.45-20.17-30.64-18.59-80.14-4.19-180.71,2.62-205.06,17-69.4,57.09-60.24,66.52-49.24,22.26,26.45-8.12,112.88-46.36,149.54C1773.54,308.81,1773.27,418,1789.51,420.63Zm-16-138.8S1810.2,248.57,1817,175.5c2.88-31.69-12-34-16.24-24.62C1788.2,165.81,1775.63,256.43,1773.54,281.83Z" transform="translate(-24.6 -137.56)"/><path class="cls-2" d="M1847.91,362.49c-13.09-30.38-10.48-100.83,38-100.83,9.69,0.52,27-.52,29.07,19.12,0.79,32.74-29.07,44.78-39.81,43,1,41.64,12.31,43.29,19,46.46,5.55,2.62,29.82-4.57,55.61-47,25.15-41.36,59.37-72.35,72.83-61.56-10.66-1.63-35.08,7.44-59,47.14C1903.17,419.66,1858.38,382.4,1847.91,362.49ZM1874.36,314c12.83-1,25.67-3.93,28.81-28.81-0.79-15.19-10.74-15.45-15.19-12.31C1880.12,282.62,1877,292.57,1874.36,314Z" transform="translate(-24.6 -137.56)"/></svg>